<svg width="32" height="32" viewBox="0 0 32 32" fill="none" xmlns="http://www.w3.org/2000/svg">
<mask id="mask0_1_2" style="mask-type:luminance" maskUnits="userSpaceOnUse" x="0" y="0" width="32" height="32">
<path d="M0 32L32 32L32 0L-2.79753e-06 2.79753e-06L0 32Z" fill="white"/>
</mask>
<g mask="url(#mask0_1_2)">
<path d="M23.6086 2.276C23.7359 2.153 23.8375 2.0059 23.9074 1.8432C23.9773 1.6806 24.014 1.5056 24.0156 1.3286C24.0171 1.1515 23.9834 0.975999 23.9163 0.812099C23.8493 0.648199 23.7503 0.499401 23.6251 0.374201C23.4999 0.249001 23.351 0.149999 23.1872 0.0828992C23.0233 0.0158992 22.8477 -0.0178001 22.6707 -0.0163001C22.4937 -0.0148001 22.3187 0.022 22.156 0.0919C21.9934 0.1618 21.8462 0.2633 21.7232 0.3907L10.8272 11.2867C9.5791 12.5377 8.8781 14.2328 8.8781 16C8.8781 17.7672 9.5791 19.4623 10.8272 20.7134L21.7232 31.6094C21.9747 31.8522 22.3115 31.9866 22.6611 31.9836C23.0107 31.9806 23.3451 31.8403 23.5923 31.5931C23.8395 31.3459 23.9798 31.0115 23.9828 30.6619C23.9858 30.3123 23.8515 29.9755 23.6086 29.724L12.7126 18.828C11.9627 18.0779 11.5414 17.0607 11.5414 16C11.5414 14.9394 11.9627 13.9221 12.7126 13.172L23.6086 2.276Z" fill="#2A6CEA"/>
</g>
</svg>
